PathFileType	4	(X/Y/Z)	47_1_5_p0_0-340_filt_butterworth.trc
DataRate	CameraRate	NumFrames	NumMarkers	Units	OrigDataRate	OrigDataStartFrame	OrigNumFrames
55.0	55.0	5	27	m	55.0	0	340
Frame#	Time	RHip			RKnee			RAnkle			RBigToe			RSmallToe			RHeel			LHip			LKnee			LAnkle			LBigToe			LSmallToe			LHeel			Neck			Head			Nose			RShoulder			RElbow			RWrist			RThumb			RIndex			RPinky			LShoulder			LElbow			LWrist			LThumb			LIndex			LPinky			
		X1	Y1	Z1	X2	Y2	Z2	X3	Y3	Z3	X4	Y4	Z4	X5	Y5	Z5	X6	Y6	Z6	X7	Y7	Z7	X8	Y8	Z8	X9	Y9	Z9	X10	Y10	Z10	X11	Y11	Z11	X12	Y12	Z12	X13	Y13	Z13	X14	Y14	Z14	X15	Y15	Z15	X16	Y16	Z16	X17	Y17	Z17	X18	Y18	Z18	X19	Y19	Z19	X20	Y20	Z20	X21	Y21	Z21	X22	Y22	Z22	X23	Y23	Z23	X24	Y24	Z24	X25	Y25	Z25	X26	Y26	Z26	X27	Y27	Z27	
0	0.0	0.36580359085187414	0.5174373084828201	0.7746334589799173	0.35164730557538254	0.03275699137678112	0.7733874304914171	0.324216282111161	-0.3717996883482324	0.7815204418309	0.3403040330324431	-0.3811714409760631	0.6299368222982453	0.39684686313388523	-0.38991913613376994	0.6592019687737877	0.2652000355331709	-0.4633845592302131	0.8693078854584199	0.17583260108084847	0.5033450782353859	0.7173506507392597	0.14745841873470317	0.03813840009802211	0.7249406576194812	0.13134859145181793	-0.3701860862277485	0.7389701912099484	0.20117587151381744	-0.35442341887237777	0.5599069439009363	0.1331460526412251	-0.3877462104523418	0.6026363910361082	0.12903412136142434	-0.44042992600670056	0.793925085232679	0.2894738333627292	1.050742306987657	0.7346907216569218	0.31751638709806984	1.3078724884311146	0.6835896720083874	0.3218508450606756	1.1770562927156778	0.6154008577859941	0.421624719171732	0.960261610619878	0.7496954824706449	0.43333915690947816	0.730974006611047	0.7479195422876574	0.37790805941558664	0.5363006743071609	0.58942476428157	0.30913149825869285	0.43806139251535714	0.5604822015532224	0.30474811184336914	0.4297904843428905	0.559908022195118	0.31233918448608244	0.4300683149149656	0.5611296330141616	0.13855888475744707	0.9574877118562249	0.7166759877685837	0.14624065408419987	0.7032846318207192	0.6747687746939123	0.2839509096702369	0.5327705105820908	0.5681161156360511	0.36040634974076025	0.45927294871441965	0.5425707055857888	0.3515553737257202	0.4414693348228798	0.5528156782558452	0.30467109058508873	0.4309767665921882	0.5576203843714868	
1	0.0181818181818181	0.3637139775592516	0.5126627693974265	0.7759786439630737	0.3507890626969058	0.02832782085853519	0.7751121362310843	0.3243302377943435	-0.37225574685073487	0.7822356727414733	0.34229564866773854	-0.3802874660815287	0.6287056803833623	0.40143122083131505	-0.3827689036534952	0.6481244548970764	0.2652907856847921	-0.46500670538346794	0.8700167119645934	0.17401209643768673	0.4982756109699259	0.7170448548212769	0.15096623459602912	0.03892203820391499	0.7226581634589243	0.13106690704248147	-0.37367578938069673	0.7392405644957637	0.20094956639627204	-0.35080906764479314	0.5537255778712502	0.13354372445558624	-0.3864274327599645	0.6006841371504722	0.12994295826181773	-0.4414770165953262	0.7913931318540184	0.285357349208494	1.0500139339881782	0.7403094656570463	0.31750996875144955	1.307847956205893	0.6835260224315973	0.3223318282626108	1.1765671440402394	0.6155755554374396	0.4217631583961662	0.9584490113856372	0.7495956405405932	0.4332427597580422	0.7319104228572899	0.7476527154385715	0.3796506211476476	0.5338776190885806	0.5926514691296493	0.30817397717705586	0.4354118433856369	0.5607306641199985	0.3057371188599074	0.4313881991328042	0.5578708144455299	0.31284316335167145	0.43001644053938154	0.5606805735602403	0.13897522046465036	0.9566245255433826	0.7113218896571573	0.14539720761698668	0.7064057266962146	0.6755333993278615	0.2822114503199762	0.5314902618002351	0.570394003326293	0.3552996004711068	0.4573537639127414	0.5408868686829088	0.35078021628681494	0.44162356576644124	0.548091648138268	0.3042532755147587	0.43134260132602126	0.557284389684411	
2	0.0363636363636363	0.3619019288531859	0.5083155958412484	0.7772507794271458	0.35008094746191426	0.02431739042749126	0.7768446302061576	0.32438841576275174	-0.37277731420145965	0.7828782932717654	0.3437029887582985	-0.3791722255242353	0.6270865476416487	0.40436135691352487	-0.37771026168085764	0.640307136572378	0.2653465873575625	-0.46642993020991963	0.8706285720604087	0.17254854588488916	0.49404218375471554	0.7165264601195869	0.15377274147571252	0.039508416052633444	0.7209140127853452	0.13084601599717394	-0.37651067209152345	0.7395040016389993	0.20139653162717744	-0.3484302145155429	0.5498564464330953	0.13373979510090497	-0.385861737699881	0.5998844709683576	0.13060768528299865	-0.44249896875825717	0.7896335631865544	0.2827533734717535	1.0495672373790377	0.7438553880318228	0.3175008131818347	1.3078446763109104	0.6834693088091475	0.3224516320160969	1.1766794905490094	0.615554500033428	0.4217557348259516	0.9573058589959573	0.7494557213092492	0.43318926859923385	0.7321534977182758	0.7474576601164504	0.3797295325409336	0.5317486826847861	0.5963220710570403	0.30746356836407956	0.4335927290477538	0.5617363779174975	0.3055559723373761	0.431270343460962	0.5594463244266638	0.312434314648362	0.4294701467139367	0.5615407387348785	0.13923335270028167	0.956077362823829	0.7079146012110096	0.1452054611901143	0.7082242264108829	0.6759131739279937	0.28054299861829995	0.5299872790946174	0.5727012739878297	0.3514460996287899	0.45553345330680156	0.5414810949393682	0.34986317078832974	0.44101570546093016	0.5466312794013485	0.30434506464929073	0.4312518089676042	0.5576431347154909	
3	0.0545454545454545	0.3603501184064771	0.5043877688784553	0.7784407685454888	0.3495087981995843	0.020719007393288635	0.7785604010807082	0.32439735279617926	-0.3733501040293564	0.7834513217916296	0.34461790527136615	-0.37796262942941705	0.625289825516638	0.40594934900156593	-0.37444779873199385	0.6352816100955017	0.2653707169076473	-0.4676630454083888	0.8711497361796252	0.1714121853813193	0.49058475933128876	0.7158194926009971	0.1559304473442927	0.039917774026090314	0.7196615615204903	0.1306809874925928	-0.37874362997506084	0.7397584442444544	0.2023497160361575	-0.34705480316730697	0.5478520597835499	0.13377912280621376	-0.38587604573302947	0.5999673380292934	0.13104882872437829	-0.4434922277489861	0.788574696176985	0.28136874207195384	1.0493457005052502	0.7457282747096191	0.3174909906516033	1.307857683964398	0.6834199117340581	0.32227826648388963	1.177227469064369	0.6153411800017607	0.4216419091056904	0.9567027468217255	0.749291527356753	0.43316704121095045	0.7318875760551474	0.7473175579183681	0.37860292127098066	0.5299304444235432	0.6001744637847984	0.30693903115409377	0.43244070164363346	0.5632907961570399	0.30454096600336067	0.4298932212514228	0.5636195011909272	0.31135956746263216	0.42860911641185184	0.563336232800784	0.13936335162781235	0.9557833971765736	0.7060842995109723	0.1454546552524744	0.7090046971230267	0.6759443307022667	0.2789211121002293	0.5283220456526956	0.5750376581847807	0.3486748779211675	0.45384239097809115	0.5437863151243434	0.3488392666622901	0.43984975483561983	0.5476945562984619	0.3048196603120773	0.430791380792956	0.5585182069661225	
4	0.0727272727272727	0.35904121989192544	0.5008712695732161	0.7795395144914576	0.34905845323909246	0.017525979065566855	0.7802349375188083	0.3243635856744198	-0.3739598299633744	0.7839577766709195	0.3451322501741846	-0.3767955879223083	0.6235259154518631	0.4065072747164895	-0.37268610332304025	0.6325794717622563	0.2653664506912115	-0.4687148626776964	0.8715864747560025	0.17057325088584077	0.4878433004411795	0.7149479782323145	0.157491860172309	0.040170352506198825	0.7188541655861062	0.13056689070543562	-0.38042755864614064	0.7400018339169283	0.20364206845283617	-0.3464507772827648	0.5472649281196925	0.1337065658005451	-0.38629727732034747	0.6006626838728079	0.13128691488536784	-0.4444532388210059	0.7881448477720076	0.28091029092854103	1.0492928067118292	0.746327911618803	0.3174825714231334	1.307882014384586	0.6833782117993504	0.3218797418287447	1.1780452164086983	0.6149390837702391	0.4214611418799846	0.9565102682338296	0.7491188612632451	0.43316443537108945	0.7312970027290491	0.7472155904413988	0.3767289150133248	0.5284394836326175	0.6039465410339795	0.30653912488142815	0.4317924133152018	0.5651853720499462	0.30302839358544675	0.42771313642824504	0.5693752937907278	0.3098658508809598	0.4276130326063483	0.565693160020664	0.13939528741071372	0.955679802080626	0.7054611616378771	0.14593403025295873	0.7090117049909483	0.6756631018586388	0.2773213483007853	0.5265550446619273	0.5774028864812659	0.34681496605559753	0.45231095100810076	0.5472354600070104	0.34774353334072144	0.43832971481978356	0.5505414630829832	0.305550264826511	0.43004830807809535	0.5597311939377023	
